# xmcd CD database file
#
# Track frame offsets:
#	150
#	56297
#	113255
#	177887
#
# Disc length: 3014 seconds
#
# Revision: 2
# Processed by: cddbd v1.5.1PL0 Copyright (c) Steve Scherf et al.
# Submitted via: CDex 1.51
#
DISCID=220bc404
DTITLE=Miles Davis - Dark Magus [CD1]
DYEAR=1974
DGENRE=Jazz
TTITLE0=Moja (Part I)
TTITLE1=Moja (Part II)
TTITLE2=Wili (Part I)
TTITLE3=Wili (Part II)
EXTD=YEAR: 1974
EXTT0=
EXTT1=
EXTT2=
EXTT3=
PLAYORDER=
